<?xml-stylesheet type="text/css" href="/fella-img.css" ?>
<svg width="126" height="158" viewBox="0 0 126 158" fill="none" xmlns="http://www.w3.org/2000/svg">
<path d="M2.5489 134.297C2.5489 117.293 2.5489 100.252 2.5489 83.255C2.5489 78.4809 2.3319 73.6498 2.79442 68.8925C3.21872 64.5283 3.87467 60.3256 3.87467 55.9294C3.87467 51.2102 5.20044 46.6378 5.20044 41.9352C5.20044 39.5299 5.22558 18.5132 7.1891 18.5132C7.70832 18.5132 9.11886 20.4974 9.17775 21.263C9.3286 23.224 11.3269 25.0581 11.9275 26.9098C13.3109 31.1752 17.304 35.7951 20.0294 39.2836C23.5013 43.7276 27.1227 47.9765 30.7829 52.2467C33.8696 55.8479 37.6985 56.0767 42.5675 56.0767C47.2321 56.0767 51.8706 56.8873 56.5618 56.9606C60.5286 57.0226 65.0938 56.917 69.0338 57.5007C73.5458 58.1691 77.9359 58.2863 82.4879 58.2863C85.2915 58.2863 88.4965 58.6934 91.1545 57.5989C93.7988 56.5101 96.514 56.4556 98.79 54.4072C101.481 51.9851 103.104 49.3661 105.075 46.3544C106.438 44.2727 107.278 41.9759 108.07 39.6274C108.979 36.936 110.178 34.884 111.458 32.4093C112.569 30.2627 113.082 27.9277 114.11 25.7804C114.94 24.048 116.363 22.4519 116.59 20.5265C116.758 19.0961 117.375 20.2414 117.547 20.8211C118.135 22.8049 118.631 24.8941 118.971 26.9343C120.269 34.7216 121.41 42.6715 121.868 50.5772C123.188 73.3523 123.637 96.5118 121.966 119.272C121.735 122.423 122.819 127.052 121.647 130.099C120.948 131.918 120.542 133.897 120.542 135.844C120.542 139.6 120.542 143.357 120.542 147.113C120.542 149.978 121.426 152.134 121.426 155.068" stroke="currentColor" stroke-width="5" stroke-linecap="round"/>
<path d="M61.3242 41.0513C61.3242 35.3086 66.261 30.0873 68.3704 24.9457C70.6796 19.3171 73.2269 13.9216 75.4658 8.32446C76.2409 6.38667 77.3073 4.69663 78.1173 2.87407C78.4877 2.04058 87.1956 4.70452 88.257 4.98548C90.3674 5.54412 91.807 5.46307 93.781 6.36036C95.6294 7.20051 97.7956 7.34509 99.526 8.1526C100.093 8.41719 102.559 8.93517 102.325 9.77299C101.738 11.8705 100.69 13.7348 100.115 15.8617C99.488 18.1827 98.268 20.377 97.6601 22.687C97.0449 25.0249 96.7538 27.7842 95.7942 30.0033C94.3379 33.3711 94.1923 37.8991 93.2409 41.4933C92.8978 42.7894 92.5563 47.0895 91.375 47.6802" stroke="currentColor" stroke-width="5" stroke-linecap="round"/>
<path d="M66.1852 63.5894C63.7835 62.7161 61.0471 57.9926 59.3108 56.0767C56.257 52.707 52.6938 49.6977 49.4903 46.4526C48.2444 45.1905 39.0134 37.0391 40.5536 35.3063C44.1193 31.295 50.6876 29.9461 55.4808 27.8918C58.426 26.6296 61.8295 25.9663 64.6385 24.4792C65.619 23.9601 67.296 23.3744 68.3948 23.3744" stroke="currentColor" stroke-width="5" stroke-linecap="round"/>
<path d="M73.2559 68.0087C74.0913 66.5234 76.5398 66.3347 78.0188 65.7008C81.9752 64.0053 86.1145 62.636 90.2454 61.3798C95.8579 59.6731 101.557 58.068 106.989 55.8312C109.01 54.9993 111.592 55.003 113.471 54.0635C116.503 52.5474 110.894 49.5993 109.543 48.0976C106.342 44.5413 103.219 39.549 98.4455 37.9579" stroke="currentColor" stroke-width="5" stroke-linecap="round"/>
<path d="M44.0895 85.6856C44.0895 84.4274 42.1365 82.5922 43.2057 82.5922" stroke="currentColor" stroke-width="5" stroke-linecap="round"/>
<path d="M78.1172 84.3598C79.8791 84.3598 79.8849 83.0188 79.8849 85.2437" stroke="currentColor" stroke-width="5" stroke-linecap="round"/>
<path d="M34.3672 102.479C34.3672 105.961 36.4766 108.185 39.0319 110.433C42.5134 113.497 45.8202 116.705 50.4728 117.946C52.7074 118.542 55.0027 118.038 57.2981 117.308C60.0656 116.427 62.6189 116.703 65.2773 115.54C66.2948 115.095 67.8257 114.171 68.8372 113.969C69.3182 113.873 70.0201 112.701 70.0648 112.741C73.4505 115.751 78.0449 116.62 82.5368 116.62C88.5763 116.62 95.0932 116.372 99.3299 111.219C100.68 109.577 101.981 105.089 101.981 102.921" stroke="currentColor" stroke-width="5" stroke-linecap="round"/>
<path d="M93.7142 21.2878C90.0206 21.2878 86.756 20.8478 83.289 19.4995C82.1061 19.0394 80.9126 18.5048 79.9359 17.6908C78.8913 16.8203 77.9452 15.7987 76.8876 14.9677C75.7334 14.0608 77.852 15.7308 78.2288 15.9025C79.6092 16.5315 81.2287 16.8956 82.4761 17.7721C83.3973 18.4194 84.7735 18.5161 85.8496 18.8187C87.2104 19.2014 88.6115 19.3173 89.9445 19.723C90.8104 19.9866 91.6406 20.0075 92.5355 20.0075C92.8871 20.0075 93.9425 19.8193 94.2222 20.0482C94.5966 20.3545 94.8647 20.7336 95.2688 21.0135C95.7073 21.317 96.848 21.3365 95.8175 21.6536C93.7111 22.3017 91.3355 22.4868 89.1417 22.5681C86.9445 22.6495 84.9962 23.0483 82.913 22.1109C81.3627 21.4132 79.7627 20.5425 78.1577 20.0075C77.8372 19.9007 77.3844 19.3849 77.2127 19.093C77.0269 18.7771 76.8326 18.9896 76.9993 19.2861C77.2354 19.7058 77.6515 19.8745 77.985 20.1904C78.3903 20.5745 79.2677 20.9936 79.8241 21.1049C81.1922 21.3785 82.6464 22.318 83.8377 23.0253C86.2713 24.4703 89.2319 25.8603 92.1088 25.8603C92.2528 25.8603 93.6939 25.9558 93.6939 25.7587C93.6939 25.5853 91.0342 25.0107 90.6964 24.9356C89.1764 24.5978 87.8164 23.8453 86.3576 23.3403C84.9675 22.8591 83.5307 22.4517 82.1916 21.8365C80.7786 21.1873 78.9883 21.1092 77.7005 20.3733C76.8254 19.8733 75.918 19.3399 75.0586 18.9101" stroke="currentColor" stroke-width="5" stroke-linecap="round"/>
</svg>
