<svg width="144" height="125" viewBox="0 0 144 125" fill="none" xmlns="http://www.w3.org/2000/svg">
<path d="M2.65625 121.873C2.85683 120.068 3.89185 118.007 4.25936 116.187C5.97766 107.678 6.42199 99.0207 7.39042 90.4124C8.59963 79.6639 8.578 68.6598 8.5176 57.8493C8.43214 42.5512 7.61586 27.2771 7.61586 11.9605C7.61586 10.1904 7.61586 8.42027 7.61586 6.65017C7.61586 6.13901 8.3771 3.07142 8.5176 4.19542C8.59713 4.83163 10.287 5.61818 10.772 6.22435C11.4675 7.09371 12.2194 7.63932 12.8259 8.6791C14.0051 10.7006 16.7953 11.8161 18.4368 13.4133C21.3793 16.2762 24.7667 18.9247 28.1055 21.3286C30.3703 22.9592 32.7045 24.488 35.1191 25.8373C36.4843 26.6002 37.6021 27.7179 38.9516 28.5175C40.5334 29.4549 42.5268 29.9791 43.8861 31.2478C47.2465 34.3842 53.3587 34.8548 57.6879 34.8548C68.6222 34.8548 79.4152 32.6004 90.3762 32.6004C95.0686 32.6004 99.761 32.6004 104.453 32.6004C107.07 32.6004 111.235 32.9788 112.87 31.2478C116.625 27.2715 119.554 22.4039 122.589 17.7216C124.347 15.0086 125.82 11.6604 127.273 8.75425C128.08 7.13884 128.241 5.20879 129.151 3.51911C129.823 2.27145 129.761 3.19305 129.903 4.04513C130.509 7.68068 130.163 11.3706 130.804 15.0164C132.504 24.672 133.552 34.4192 135.188 44.0977C136.932 54.4182 137.227 65.0683 138.169 75.4835C138.93 83.9035 137.661 92.4564 138.595 100.858C139.141 105.779 139.09 110.576 140.148 115.336C140.611 117.42 141.074 119.659 141.074 121.873" stroke="white" stroke-width="5" stroke-linecap="round"/>
<path d="M84.264 53.7915C84.264 55.9677 82.8089 59.5759 86.6937 57.8494C87.1076 57.6654 88.4464 55.4675 88.2968 54.9437C88.2027 54.6144 86.0195 54.2424 85.6166 54.2424" stroke="white" stroke-width="5" stroke-linecap="round"/>
<path d="M86.9693 97.9771C86.9693 97.0135 85.2081 96.4627 84.7149 97.3258C83.6914 99.1169 83.9812 101.02 86.0675 101.484C87.1455 101.723 89.6745 102.12 89.6745 100.682C89.6745 99.0541 89.6406 98.4279 87.871 98.4279" stroke="white" stroke-width="5" stroke-linecap="round"/>
<path d="M70.2869 112.405C68.5808 110.699 67.046 108.533 66.0286 106.318C64.1935 102.324 61.8687 97.4547 61.1692 93.1177C59.5873 83.3098 58.7538 73.9243 59.4409 63.9612C59.5972 61.6941 59.8879 59.0415 60.8185 56.9476C61.24 55.9994 61.2221 54.5058 62.1712 53.8917C62.8787 53.4339 62.3242 52.7868 62.8725 52.2385C63.567 51.544 64.8632 49.9429 65.2271 48.9321C65.4881 48.2071 65.2897 47.8643 65.7781 47.2538C66.1049 46.8453 66.9215 47.0284 65.7781 47.0284" stroke="white" stroke-width="5" stroke-linecap="round"/>
</svg>
