<svg width="117" height="139" viewBox="0 0 117 139" fill="none" xmlns="http://www.w3.org/2000/svg">
<path d="M5.42508 136.672C5.42508 134.013 4.56885 131.391 4.40448 128.711C3.72878 117.698 4.04727 106.621 4.04727 95.5928C4.04727 72.2261 1.75091 48.965 1.75091 25.6049C1.75091 22.7432 1.57923 19.8146 1.77642 16.9553C1.92053 14.8657 2.66945 13.0475 2.66945 10.9337C2.66945 9.27428 3.12872 8.01896 3.12872 6.46856C3.12872 4.60553 4.03581 5.81531 4.83824 6.82577C10.2747 13.6717 16.3364 20.0413 22.112 26.6C26.5457 31.6349 31.2852 37.1673 36.4004 41.5518C38.1583 43.0586 40.4465 45.277 42.8302 45.277C48.4566 45.277 54.4926 46.0362 59.5426 43.0062C64.9039 39.7894 69.2255 36.3617 73.3973 31.9581C78.3515 26.7287 81.0842 19.6305 85.3384 13.7914C87.7623 10.4644 90.5671 6.98953 92.2274 3.25365C92.3804 2.90958 93.3801 0.584982 93.5798 2.18202C94.3259 8.15107 94.998 14.1427 95.7485 20.1191C97.0072 30.1416 99.5793 40.1392 101.872 49.9718C104.498 61.231 106.281 72.4797 107.843 83.9324C109.398 95.3364 110.723 106.761 112.41 118.148C112.904 121.482 113.499 124.78 114.068 128.099C114.287 129.372 114.167 130.491 114.732 131.62" stroke="currentColor" stroke-width="3" stroke-linecap="round"/>
<path d="M30.5239 15.5758C29.3987 15.9508 29.6525 20.2157 29.5365 21.0859C28.9767 25.2842 28.088 29.4561 27.2433 33.603C26.7673 35.9396 26.5107 38.1478 26.5107 40.5145" stroke="currentColor" stroke-width="3" stroke-linecap="round"/>
<path d="M30.8104 15.5758C32.3371 15.7284 34.0237 16.7369 35.3013 17.4709C40.2102 20.2909 45.4299 22.5496 50.7487 24.462C55.2912 26.0953 60.0029 27.481 64.7309 28.4592C66.1153 28.7456 67.3262 29.3351 68.7759 29.3351C70.4136 29.3351 69.3946 34.615 69.0626 35.8007C68.2822 38.5875 68.3619 41.3446 68.3619 44.2251C68.3619 44.9694 68.1168 45.54 68.0752 46.2476C68.0428 46.7986 65.7578 46.5395 65.4316 46.5342C61.3061 46.4677 57.15 45.3826 53.1056 44.7506C47.5703 43.8857 42.189 42.2711 36.8301 40.7056C34.3067 39.9684 31.6442 39.8179 29.1542 39.0176C28.5148 38.812 27.6572 39.0033 27.6572 38.2213" stroke="currentColor" stroke-width="3" stroke-linecap="round"/>
<path d="M33.1045 15.0025C41.3973 15.0025 49.4472 12.5958 57.7247 12.1359C59.6426 12.0294 62.4227 12.3087 64.2222 11.4989C64.6746 11.2954 64.6581 11.2361 65.0662 11.5626C65.9007 12.2302 65.9989 15.1759 66.2128 16.1172C66.466 17.2312 66.9295 18.4451 66.9295 19.5889C66.9295 20.3218 67.1568 22.6884 67.5665 23.2517C68.053 23.9207 67.6381 25.1418 68.1398 25.8316C68.5896 26.4501 68.936 27.6906 68.936 28.4751" stroke="currentColor" stroke-width="3" stroke-linecap="round"/>
<path d="M58.6161 11.276C57.0335 11.1881 55.8645 9.74401 54.3163 9.57199C52.0482 9.31997 49.7414 8.60111 48.2011 10.6549C47.3729 11.7591 47.4367 12.9622 47.4367 14.2699C47.4367 15.5058 49.3631 16.4195 50.3191 16.9931C53.3355 18.8029 57.8776 15.9808 59.9857 13.9195C60.7388 13.1831 62.1855 12.46 61.7056 11.2123C60.8666 9.03078 56.5934 8.97468 54.8896 8.1228" stroke="currentColor" stroke-width="3" stroke-linecap="round"/>
<path d="M67.7234 34.9565C64.8929 32.8752 60.7938 32.1207 57.4637 31.3934C54.8218 30.8164 52.0901 30.6042 49.4109 30.2562C47.2981 29.9818 45.1319 29.4611 43.0091 29.3549C40.2405 29.2165 37.5245 28.4984 34.8131 27.9819C33.7383 27.7772 32.7361 27.4826 31.7217 27.1059C30.8446 26.7801 29.8046 26.7255 28.9926 26.2383C28.6267 26.0187 28.199 25.9754 27.8554 25.775C27.5385 25.5901 26.5214 25.2859 26.8867 25.2527C27.3857 25.2074 27.888 25.3687 28.3608 25.497C30.1183 25.9741 31.9219 26.2139 33.7097 26.5499C38.4666 27.4441 43.217 28.2477 47.9958 29.0096C53.9063 29.9518 60.4985 30.5859 65.904 33.2887" stroke="currentColor" stroke-width="3" stroke-linecap="round"/>
<path d="M67.2689 40.8697C67.214 40.6504 66.8199 40.6745 66.6455 40.6255C65.6615 40.3487 64.7316 39.8761 63.7479 39.581C60.5372 38.6177 57.1379 38.1549 53.8419 37.5678C49.0634 36.7165 44.2127 36.1507 39.4632 35.2008C36.9161 34.6914 34.3915 34.445 31.8063 34.3416C30.2677 34.2801 28.7879 33.7435 27.2408 33.7435C26.262 33.7435 29.0683 33.9562 29.254 33.9794C33.4029 34.498 37.5573 34.9003 41.7122 35.3608C46.2087 35.8592 50.7301 36.5344 55.1728 37.3909C57.3905 37.8184 59.5393 38.5293 61.7347 39.0503C63.4155 39.4491 65.3148 39.6193 66.8982 40.3391C67.4294 40.5805 68.1871 40.5722 68.6335 40.8697" stroke="currentColor" stroke-width="3" stroke-linecap="round"/>
<path d="M34.4891 66.8379C33.7298 66.9223 33.5406 69.6786 34.3996 69.8695C35.248 70.058 34.965 68.7543 35.493 68.637C35.9456 68.5364 36.2763 68.7084 36.5267 68.1797C36.824 67.5522 36.6123 66.7579 35.9999 66.4204C35.0902 65.9192 34.2605 66.4695 34.1312 67.3746" stroke="currentColor" stroke-width="3" stroke-linecap="round"/>
<path d="M69.198 64.512C69.1171 64.8355 68.8402 64.7217 68.8402 65.1879C68.8402 65.4383 68.8263 65.6933 68.8402 65.9433C68.873 66.5345 70.622 66.7657 70.9474 66.4403C71.0431 66.3445 70.0105 66.1539 69.9136 66.1222C69.4349 65.9657 69.0344 65.7439 68.5221 65.7644C67.9994 65.7853 68.841 66.2739 68.9594 66.3409C70.0023 66.9304 71.1628 66.8379 72.319 66.8379C73.0578 66.8379 74.8089 66.8155 74.5554 65.675C74.3807 64.8889 72.3225 65.1944 71.7823 65.2376C71.1359 65.2893 69.8071 66.3012 71.0766 66.3012C72.2158 66.3012 71.538 65.3105 70.9871 64.8698" stroke="currentColor" stroke-width="3" stroke-linecap="round"/>
<path d="M34.4893 86.5183C39.5439 86.4034 44.5977 85.8002 49.6471 85.5442C59.6505 85.0371 69.7116 85.5608 79.6945 84.8683C82.2448 84.6914 84.6641 84.1924 87.189 84.1924C89.6606 84.1924 92.1323 84.1924 94.6039 84.1924" stroke="currentColor" stroke-width="3" stroke-linecap="round"/>
<path d="M94.6541 85.6368C94.6541 90.2668 95.8987 96.8359 93.312 100.975C91.3266 104.151 88.6437 105.577 84.855 105.938C82.1908 106.192 80.6151 104.797 78.1661 104.447C77.2493 104.316 75.3296 102.392 75.0133 101.443C74.0257 98.4805 74.2293 95.3504 73.3943 92.3684C72.9198 90.6737 72.7979 88.5555 72.7979 86.7872" stroke="currentColor" stroke-width="3" stroke-linecap="round"/>
</svg>
