<?xml-stylesheet type="text/css" href="/fella-img.css" ?>
<svg width="153" height="184" viewBox="0 0 153 184" fill="none" xmlns="http://www.w3.org/2000/svg">
<path d="M2.56836 180.82C5.31494 178.348 6.13732 176.07 7.09844 172.565C9.29464 164.555 9.36348 155.182 9.36348 146.895C9.36348 143.372 10.1316 139.898 10.496 136.4C11.0846 130.749 11.3931 124.987 11.7292 119.311C12.2975 109.713 14.0376 100.249 14.7744 90.6713C15.3138 83.6584 14.7996 76.4231 14.7996 69.3799C14.7996 67.8017 13.9734 63.0538 14.9002 61.7794C16.272 59.8933 15.7724 57.3976 16.1838 55.1353C16.5207 53.2821 17.5176 52.5061 17.5176 50.5801C17.5176 49.6908 17.5176 47.0231 17.5176 47.9124C17.5176 48.8636 18.5332 49.1334 18.9773 49.9006C19.9162 51.5223 21.4864 52.46 22.7524 53.726C24.7071 55.6807 26.5495 57.461 28.8176 59.1621C32.1203 61.639 35.9372 63.146 39.3627 65.3028C43.4246 67.8604 47.5522 69.452 51.6945 71.6449C52.7758 72.2174 53.7544 72.7963 54.7649 73.457C55.6424 74.0307 56.6926 73.7273 57.3823 74.5895C57.7147 75.005 58.8894 75.269 59.3957 75.269C60.4978 75.269 60.8128 75.9296 61.56 76.5274C62.5551 77.3234 66.7202 76.628 67.9021 76.628C79.1051 76.628 90.2943 77.081 101.5 77.081C103.224 77.081 112.112 78.0918 113.102 76.8545C113.411 76.4682 114.833 76.2919 115.367 75.9485C116.841 75.0012 118.167 73.8169 119.545 72.7523C123.206 69.9234 126.785 67.2024 129.662 63.5411C131.431 61.2896 133.968 59.4574 135.753 57.048C136.024 56.6817 139.225 53.2329 139.352 53.8015C140.267 57.9201 142.548 61.9545 142.548 66.234C142.548 74.4113 142.647 82.5954 142.548 90.7719C142.509 93.951 142.095 97.0891 142.095 100.285C142.095 104.934 143.464 109.16 143.882 113.749C144.801 123.861 146.501 133.878 146.625 144.026C146.718 151.648 148.437 159.223 148.437 166.777C148.437 169.602 149.343 172.347 149.343 175.157C149.343 176.919 149.026 180.05 150.249 181.273" stroke="currentColor" stroke-width="5" stroke-linecap="round"/>
<path d="M72.3451 94.4136C72.3451 96.3795 72.1285 98.2962 71.8591 100.246C70.9516 106.811 71.1468 113.318 70.617 119.903C70.208 124.986 69.4765 130.036 68.9429 135.105C68.5764 138.586 67.2532 135.263 66.5127 133.782" stroke="currentColor" stroke-width="5" stroke-linecap="round"/>
<path d="M88.3842 97.3298C86.7629 99.4915 86.8476 103.304 86.44 105.862C85.8377 109.643 85.3772 113.457 84.9549 117.257C84.6969 119.579 84.0099 121.706 84.0099 124.062C84.0099 126.325 85.1516 132.324 82.5518 132.324" stroke="currentColor" stroke-width="5" stroke-linecap="round"/>
<path d="M41.2383 143.989C41.5281 146.597 44.136 148.962 45.6936 150.847C50.4507 156.606 58.1108 160.659 65.1619 162.836C73.5664 165.431 81.1551 167.087 89.6256 164.132C101.439 160.011 109.757 147.924 112.685 136.212" stroke="currentColor" stroke-width="5" stroke-linecap="round"/>
<path d="M109.002 57.9344C105.919 57.2737 103.771 54.5111 100.487 54.2462C97.9982 54.0455 95.1575 52.8962 92.7009 52.2883C90.8683 51.8349 88.8553 51.4637 86.9637 51.3777C80.9769 51.1055 74.4467 50.0481 68.614 51.9924C65.8405 52.9169 61.9671 53.5008 61.4426 56.9099C61.125 58.9745 59.8262 60.8787 59.8262 63.0568C59.8262 64.3849 59.8262 65.7129 59.8262 67.041C59.8262 69.384 61.4319 70.7504 63.5143 71.4577C67.4885 72.8074 71.7794 73.8774 75.9903 73.9164C82.2069 73.974 88.3232 74.736 94.5677 74.736C98.5809 74.736 102.887 74.9607 106.702 73.4839C108.396 72.8281 110.552 72.509 111.665 71.0251C112.689 69.6605 113.135 68.459 113.714 66.7222C114.293 64.9856 115.031 62.7132 114.716 60.8257C114.445 59.2006 112.717 59.6271 112.28 58.754" stroke="currentColor" stroke-width="5" stroke-linecap="round"/>
<path d="M113.919 59.1638C113.919 53.9607 114.662 48.2814 113.828 43.1818C112.798 36.8915 110.71 32.4726 106.133 28.0194C102.079 24.0752 98.0027 20.6923 93.1101 17.8655C89.7706 15.936 84.4668 13.7972 80.4975 14.5189C74.3199 15.6421 69.6358 23.6881 68.2264 29.0438C66.2114 36.701 64.7432 44.5833 64.7432 52.6071" stroke="currentColor" stroke-width="5" stroke-linecap="round"/>
<path d="M85.6427 2.612C83.6471 2.612 80.8912 4.52538 79.2909 5.70823C77.0165 7.38928 75.1896 9.68645 73.9863 12.265C73.1068 14.1496 73.3489 16.3957 73.3489 18.4119C73.3489 21.4707 77.9667 20.8289 79.9967 21.2349C85.3073 22.2971 90.9502 21.8727 95.9787 19.6185C98.419 18.5246 98.4798 16.4521 98.3236 14.109C97.8505 7.0127 92.5258 7.11975 86.8721 7.11975" stroke="currentColor" stroke-width="5" stroke-linecap="round"/>
<path d="M76.7694 54.428C76.3519 54.4802 75.8596 55.4388 75.6068 55.7567C74.2719 57.4348 73.37 59.1907 72.7121 61.2376C71.9983 63.4582 72.0715 65.5764 72.0715 67.8811" stroke="currentColor" stroke-width="5" stroke-linecap="round"/>
<path d="M83.6025 56.3499C83.6025 57.2876 84.8478 58.4538 85.216 59.3395C85.9885 61.1978 86.3786 63.037 86.3786 65.0577C86.3786 66.0901 86.4865 70.4789 85.3109 70.8708" stroke="currentColor" stroke-width="5" stroke-linecap="round"/>
<path d="M96.2012 55.7092C96.6216 55.8143 96.9776 57.271 97.1502 57.6311C98.2031 59.827 98.6701 62.4309 98.8467 64.8441C99.0439 67.5395 99.2426 70.5514 98.6569 73.2197C98.5774 73.5817 98.4384 74.3433 98.1231 74.5009" stroke="currentColor" stroke-width="5" stroke-linecap="round"/>
<path d="M106.024 59.3395C106.024 62.906 107.306 66.2928 107.306 69.898C107.306 71.24 108.008 73.6848 106.451 74.0739" stroke="currentColor" stroke-width="5" stroke-linecap="round"/>
<path d="M77.1962 52.079C74.9236 52.079 73.4291 55.8138 72.7593 57.5362C71.7847 60.0422 71.4688 62.8928 70.4103 65.3187C69.9358 66.406 69.9559 67.7884 69.6036 68.9489C69.3597 69.7524 69.2951 70.872 69.2951 71.7249C69.2951 72.3739 69.259 74.2874 70.1493 74.2874" stroke="currentColor" stroke-width="5" stroke-linecap="round"/>
<path d="M82.748 51.652C83.0407 55.1633 86.1976 57.8184 87.3155 61.0478C87.7803 62.3905 87.7481 63.942 88.1815 65.3187C88.4399 66.1394 88.5137 66.8181 88.5137 67.6676" stroke="currentColor" stroke-width="5" stroke-linecap="round"/>
<path d="M112.012 51.9987C110.756 51.9987 109.784 51.5709 108.589 51.1725C107.643 50.857 106.628 49.8449 105.756 49.6512C105.104 49.5062 104.552 49.065 103.881 48.9431C103.052 48.7923 101.924 48.7186 101.166 48.3398C99.1351 47.3241 96.4789 47.4696 94.2945 46.9234C93.4183 46.7044 92.4741 46.7521 91.5929 46.5562C90.7994 46.3799 90.0807 45.8612 89.2323 45.8612C88.2162 45.8612 87.2516 45.6251 86.2291 45.6251C85.0959 45.6251 84.235 44.9169 83.0292 44.9169C80.8871 44.9169 78.7451 44.9169 76.6031 44.9169C73.4635 44.9169 70.4864 45.3821 67.6328 46.3333" stroke="currentColor" stroke-width="5" stroke-linecap="round"/>
<path d="M111.068 42.7924C111.068 41.6927 105.327 40.1202 104.668 39.9072C103.158 39.4195 101.447 38.7874 99.868 38.5696C98.8852 38.434 97.9384 38.5527 96.9566 38.3073C94.9386 37.8028 92.9498 38.0241 90.924 37.7171C88.4337 37.3398 85.7198 37.5991 83.1996 37.5991C80.7354 37.5991 78.487 38.227 76.0784 38.3073C74.3208 38.3659 72.7452 39.2515 70.99 39.2515C70.0385 39.2515 69.6726 39.6797 68.813 39.9072C68.1205 40.0905 67.1465 39.6099 66.9377 40.5498C66.7991 41.1733 66.6885 41.7874 66.6885 42.4383C66.6885 43.6737 67.3653 43.0276 68.3934 42.8449C71.9891 42.2056 75.4956 41.8482 79.1865 41.8482C82.5186 41.8482 85.864 42.0842 89.2191 42.0842C91.036 42.0842 92.6584 42.4818 94.4386 42.8055C95.5089 43.0001 96.5385 43.3542 97.6123 43.553C98.2612 43.6732 98.8015 44.1839 99.4483 44.2088C99.8775 44.2253 100.006 44.2892 100.34 44.5628C100.83 44.9635 101.365 44.7931 101.914 44.9694C102.58 45.1835 103.557 45.8276 104.17 46.2284C105.335 46.9902 106.61 47.6569 107.881 48.2218C108.479 48.4876 110.36 49.8695 110.36 48.5759C110.36 48.1614 110.375 47.744 110.36 47.33C110.344 46.9379 109.965 47.1046 109.783 46.7923C109.122 45.6604 108.065 45.218 106.924 44.6809C103.922 43.2684 100.215 42.3203 96.9041 42.3203" stroke="currentColor" stroke-width="5" stroke-linecap="round"/>
<path d="M106.111 30.5173C104.904 30.4463 103.063 29.5094 101.914 29.1009C100.123 28.4643 98.3763 28.2629 96.5502 27.7895C93.0163 26.8733 88.6732 27.368 85.0488 27.4485C83.8793 27.4745 82.7407 27.8988 81.5603 27.9206C80.7224 27.9362 79.9499 27.8664 79.1473 28.1042C77.5751 28.5701 75.7454 27.8974 74.1507 28.5108C73.5448 28.7438 72.5867 28.8174 72.1048 29.219C71.8377 29.4416 71.1879 29.6614 70.8327 29.5599C70.4236 29.4431 70.922 28.5592 70.9377 28.3403C70.9845 27.685 71.3969 25.5703 71.9344 25.1404C72.2266 24.9066 73.251 25.0879 73.5868 25.0879C74.8292 25.0879 75.9775 25.1545 77.2064 25.324C81.6395 25.9354 86.0918 25.7961 90.5831 25.7961C92.4003 25.7961 94.1857 25.6614 95.96 25.56C97.704 25.4604 99.5111 24.8519 101.258 24.8519C101.895 24.8519 101.384 24.6158 101.022 24.6158C99.9369 24.6158 98.7938 24.5068 97.7305 24.7469C96.9953 24.9129 96.3561 25.0879 95.6059 25.0879C95.049 25.0879 94.9457 25.595 94.5436 25.7961" stroke="currentColor" stroke-width="5" stroke-linecap="round"/>
</svg>
