<?xml-stylesheet type="text/css" href="/fella-img.css" ?>
<svg width="140" height="176" viewBox="0 0 140 176" fill="none" xmlns="http://www.w3.org/2000/svg">
<path d="M6.36524 161.61C0.558519 135.216 3.23611 106.376 7.3075 79.9702C8.31629 73.4275 9.03177 66.8476 10.1343 60.3174C10.7931 56.4153 10.6935 52.3134 11.4803 48.472C12.452 43.7279 13.0615 38.6025 14.3744 33.9343C14.7772 32.5023 14.44 29.9338 16.057 31.646C18.0423 33.748 19.9606 35.5934 22.249 37.4341C26.2202 40.6283 30.5714 43.8781 34.2291 47.3951C36.4572 49.5375 40.6019 52.0359 42.1036 54.6639C43.6926 57.4446 48.0589 56.8176 50.8868 56.8176C57.8482 56.8176 66.3158 58.1913 72.9961 56.2119C77.0236 55.0186 81.6915 55.6062 85.8512 55.6062C91.2662 55.6062 96.8093 55.0004 102.307 55.0004C105.317 55.0004 108.717 52.1814 110.888 50.1545C115.677 45.6847 120.984 40.2702 125.022 35.0785C126.207 33.5554 129.607 28.8279 131.18 31.7133C133.003 35.0541 134.624 37.7339 135.959 41.405C138.304 47.8551 136.598 57.3431 136.598 64.0865C136.598 81.1684 134.927 98.0165 134.781 115.103C134.72 122.262 133.57 129.308 133.57 136.506C133.57 141.542 133.57 146.579 133.57 151.615C133.57 159.287 133.334 165.983 136.598 172.513" stroke="currentColor" stroke-width="5" stroke-linecap="round"/>
<path d="M52 86.4987C52.9254 86.4987 54.0715 86.8109 54.5575 85.8929C55.5602 83.9989 53.8845 85.7329 53.8845 86.1958C53.8845 86.9181 54.3198 84.8519 52.9423 86.2294C52.0783 87.0934 52 88.3988 52 89.5273" stroke="currentColor" stroke-width="5" stroke-linecap="round"/>
<path d="M85.5986 88.879C82.6387 88.879 92.5309 89.701 94.3481 87.3647C97.2748 83.6018 91.09 87.1765 90.108 87.6675C87.3906 89.0262 88.0215 89.3691 88.0215 86.1532C88.0215 82.9373 87.6276 87.3032 88.0215 88.879" stroke="currentColor" stroke-width="5" stroke-linecap="round"/>
<path d="M36.7207 127.497C36.7207 137.357 50.2634 138.043 57.2501 138.043C61.0643 138.043 65.2866 138.554 68.6753 136.421C69.2928 136.032 70.5213 135.244 71.1992 135.204C72.4259 135.132 74.0732 135.802 75.0752 136.443C78.2333 138.465 81.7195 141.29 85.3737 142.257C88.7816 143.159 92.1462 142.219 95.0412 140.387C98.4187 138.25 104.028 135.384 106.083 131.959" stroke="currentColor" stroke-width="5" stroke-linecap="round"/>
<path d="M95.7189 41.2762C95.7189 35.9435 96.5147 30.5752 96.5147 25.184C96.5147 19.2493 96.2812 13.374 96.1168 7.45599C96.1014 6.90106 95.9272 4.9233 95.4979 4.49396C94.2651 3.26117 89.4636 3.48045 87.8938 3.30031C78.3787 2.20841 68.391 3.07926 58.804 3.07926C57.9116 3.07926 56.6301 2.85093 55.7536 3.10136C54.8344 3.36399 54.3389 7.10173 54.3389 7.89809C54.3389 14.2495 54.3389 20.6009 54.3389 26.9524C54.3389 31.5634 55.1346 35.9731 55.1346 40.4804" stroke="currentColor" stroke-width="5" stroke-linecap="round"/>
<path d="M98.5047 35.3079C102.005 35.3079 105.353 36.6844 106.374 40.2594C107.313 43.5476 106.848 46.4761 103.854 48.615C99.6586 51.6117 94.2241 53.2127 89.0439 53.2127C82.4566 53.2127 75.8075 53.9312 69.2381 54.3843C63.4499 54.7835 58.1497 53.9983 52.549 53.1685C48.5747 52.5798 47.6991 50.5512 45.1881 48.0402C43.9579 46.81 43.7481 45.9093 43.5745 44.2603C43.4032 42.6335 42.1751 41.0366 42.425 39.2868C42.8598 36.2436 47.1029 35.3079 49.5649 35.3079" stroke="currentColor" stroke-width="5" stroke-linecap="round"/>
<path d="M96.1172 41.2762C96.1172 41.96 96.149 43.5296 95.2551 43.6414C91.8573 44.0661 88.3134 44.8036 84.888 44.8571C81.0987 44.9164 77.4636 45.6529 73.6588 45.6529C71.0652 45.6529 68.4716 45.6529 65.878 45.6529C64.2864 45.6529 62.6949 45.6529 61.1033 45.6529C60.5477 45.6529 59.8981 45.751 59.3571 45.6308C58.8345 45.5147 58.8672 44.8571 58.1192 44.8571C57.5292 44.8571 56.2611 43.7727 55.8424 43.354C55.2301 42.7417 54.3434 42.4781 53.9414 41.6741" stroke="currentColor" stroke-width="5" stroke-linecap="round"/>
<path d="M94.9235 38.8889C88.477 38.8889 82.2398 41.2762 75.8029 41.2762C70.919 41.2762 65.9347 41.4346 61.2801 40.1047C59.9048 39.7117 56.7266 37.9785 56.7266 39.9942C56.7266 42.0953 58.2168 40.6448 59.3128 41.4973C61.2636 43.0145 63.899 42.4699 66.2758 42.4699" stroke="currentColor" stroke-width="5" stroke-linecap="round"/>
</svg>
