<svg width="124" height="142" viewBox="0 0 124 142" fill="none" xmlns="http://www.w3.org/2000/svg">
<path d="M6.17462 139.658C6.17462 132.34 4.43432 125.168 4.29314 117.826C3.96975 101.01 4.48707 84.2801 3.33466 67.4879C2.27416 52.035 2.34067 36.5665 2.34067 21.09C2.34067 18.5696 2.34067 16.0491 2.34067 13.5286C2.34067 10.6851 3.46811 14.6654 4.61264 16.0846C11.1065 24.137 16.1665 33.1403 23.4274 40.6148C25.7365 42.9918 27.6386 46.8883 30.7758 48.2826C31.9431 48.8015 33.2015 49.4895 34.1482 50.3416C35.3531 51.426 37.3795 50.5286 38.9052 50.9806C45.8881 53.0496 55.1291 51.4776 62.4058 51.4776C65.7924 51.4776 69.2526 50.5394 72.6297 50.1641C75.2406 49.874 78.4235 49.3002 80.9366 48.6021C83.1652 47.9831 89.1997 47.316 90.3794 45.0877C93.9483 38.3464 97.2343 30.9399 100.426 23.717C103.296 17.2216 105.261 9.71687 109.052 3.69528C110.125 1.99059 110.128 1.08319 111.324 3.30478C113.998 8.27123 115.048 13.5114 116.117 19.0311C118.191 29.7499 118.558 40.7425 119.134 51.6196C119.708 62.4707 121.109 73.2519 121.193 84.1371C121.279 95.2943 121.193 106.455 121.193 117.613C121.193 121.161 122.471 124.517 122.471 128.299C122.471 132.085 122.471 135.872 122.471 139.658" stroke="currentColor" stroke-width="3" stroke-linecap="round"/>
<path d="M45.2475 74.4307C44.1243 74.4307 44.1163 75.1749 43.4597 75.9045C43.4043 75.9661 44.7313 75.7171 45.0301 75.5179" stroke="currentColor" stroke-width="3" stroke-linecap="round"/>
<path d="M43.7249 112.917C43.2123 112.981 45.4471 113.134 43.7249 113.134" stroke="currentColor" stroke-width="3" stroke-linecap="round"/>
<path d="M62.207 69.6471C62.6725 69.2334 63.685 69.4297 64.2727 69.4297C67.2496 69.4297 69.7935 70.7405 72.5473 71.7732C75.9188 73.0375 77.9314 77.5129 77.0772 80.9296C76.1505 84.6364 72.3148 87.9313 68.7301 89.0835C67.8001 89.3824 66.8614 89.8687 65.9034 89.8687C65.5165 89.8687 65.4325 89.9134 65.1303 90.0861C64.5853 90.3975 66.35 90.3344 66.5074 90.3519C70.9095 90.841 75.3811 91.9488 79.5777 93.3476C83.2174 94.5609 85.4487 96.7341 88.2993 99.1701C88.9936 99.7634 89.7419 100.325 90.3046 101.055C90.532 101.349 91.4819 102.094 91.5488 102.395C91.8827 103.898 91.7247 104.906 91.0052 106.297C89.5952 109.023 87.2712 110.321 84.8687 111.999C82.7803 113.457 80.1499 114.354 77.6329 114.644C74.9209 114.957 72.16 115.091 69.4307 115.091C68.1748 115.091 67.105 114.656 65.9034 114.656" stroke="currentColor" stroke-width="3" stroke-linecap="round"/>
<path d="M67.6779 54.3219C66.8037 54.3219 65.9976 54.1024 65.1347 54.0329C63.6927 53.9166 62.2119 54.0097 60.7651 54.0097C59.5973 54.0097 58.4184 54.053 57.2508 54.0097C56.8696 53.9956 57.0702 52.441 57.0659 52.1601C57.0483 51.0154 56.8578 49.8765 56.8578 48.7268C56.8578 47.8945 56.8578 47.0622 56.8578 46.2299C56.8578 45.8485 56.8048 45.5321 57.0081 45.2126C57.0823 45.0959 57.006 44.8735 57.1699 44.8543C57.2952 44.8395 57.4714 44.7559 57.5803 44.6924C57.8949 44.5089 58.207 44.2767 58.5224 44.074C59.2461 43.6088 59.9501 43.0105 60.557 42.4036C61.7508 41.2097 63.3238 40.1557 64.811 39.3864C65.5504 39.004 66.2762 38.4632 66.9092 37.9241C67.7345 37.221 68.7284 36.6612 69.5044 35.9069C70.337 35.0974 70.9296 34.262 71.7586 33.433C72.1521 33.0395 72.6038 32.6715 72.0476 32.2424C70.7718 31.2582 69.794 29.9005 68.4524 28.9882C67.827 28.563 67.2658 28.0261 66.6953 27.5317C66.219 27.1189 65.8751 26.5359 65.337 26.185C64.3444 25.5376 63.456 24.4498 62.7302 23.5262C61.8544 22.4115 60.7073 22.0407 60.7073 20.405C60.7073 18.8097 60.7073 17.2144 60.7073 15.6192C60.7073 14.8485 60.7073 14.0778 60.7073 13.3072C60.7073 12.8221 61.1675 12.8627 61.5396 12.7061C61.8815 12.5621 62.2743 12.5481 62.6378 12.4922C63.2522 12.3977 63.8289 12.2081 64.4527 12.1338C65.6911 11.9864 66.9685 12.1477 68.1981 11.972C68.6274 11.9107 69.6658 11.6395 69.9205 12.076C70.0985 12.3811 70.6493 12.6637 70.9031 12.9719C71.5083 13.7068 72.2447 14.5 72.9377 15.151C73.6736 15.8424 74.5149 16.4181 75.2612 17.0815C75.797 17.5577 76.2179 18.1827 76.7293 18.6941C77.0496 19.0143 77.5078 19.2003 77.7697 19.5495C77.8783 19.6943 78.0214 19.6278 78.1339 19.7403C78.2996 19.906 78.3809 20.11 78.5789 20.2547C79.2491 20.7445 79.7193 21.4676 80.3707 21.9887C81.0833 22.5588 81.828 23.3192 82.3475 24.0695C82.4386 24.2011 82.7235 24.6195 82.9486 24.4394C83.0549 24.3543 83.0973 24.3895 83.226 24.3527C83.3171 24.3267 83.2892 24.071 83.3416 23.9886C83.945 23.0403 84.4066 22.0336 85.0063 21.0812C85.7455 19.9072 86.5217 18.7159 87.1564 17.4919C87.6502 16.5395 88.1315 15.5991 88.6939 14.7059C89.2196 13.8709 89.8482 12.944 90.2545 12.0298C90.402 11.6979 90.897 10.6253 91.2024 10.6253C93.4637 10.6253 95.7022 10.3195 97.9534 10.1051C98.5259 10.0506 99.1106 9.79296 99.67 9.79296C100.069 9.79296 100.468 9.79296 100.866 9.79296C101.363 9.79296 101.461 9.75882 101.641 10.2207C101.998 11.1387 102.245 12.1264 102.427 13.0991C102.756 14.8552 103.259 16.6058 103.259 18.4051C103.259 18.7199 103.152 19.2785 103.283 19.5727C103.34 19.7012 103.512 20.0906 103.421 20.1969C102.243 21.5825 100.993 22.8797 99.6989 24.1735C98.6436 25.2288 97.6548 26.3217 96.6009 27.3756C95.4318 28.5447 94.3712 29.7205 93.3757 30.965C93.178 31.212 93.5666 31.0768 93.7398 31.1731C94.1039 31.3754 94.4493 31.5447 94.786 31.7915C96.1248 32.7733 97.241 34.0017 98.5545 35.0168C99.9317 36.0809 101.334 36.8635 102.3 38.3807C102.843 39.2347 103.854 39.964 104.173 40.947C104.516 42.0069 105.449 43.1642 106.225 43.7676C106.66 44.1067 106.874 44.8536 107.265 45.1664C107.414 45.2857 107.525 45.5072 107.525 45.6924C107.525 46.7715 107.503 47.8388 107.369 48.9118C107.255 49.8271 107.357 50.8153 107.207 51.7151C107.152 52.0486 103.231 51.7209 102.843 51.7209C101.735 51.7209 100.16 51.4581 99.1787 52.033C98.3384 52.5256 97.4827 52.7998 96.52 52.7613C96.3829 52.7558 96.0919 52.2885 96.0113 52.1601C95.757 51.7551 95.4226 51.28 95.1212 50.9117C94.7461 50.4532 94.4798 50.0193 94.1039 49.536C92.9338 48.0316 91.3459 46.7665 90.0001 45.4207C88.8182 44.2387 87.686 42.9716 86.457 41.8371C86.2386 41.6354 85.9606 41.1088 85.6247 41.1088C85.3705 41.1088 84.9975 40.8318 84.8386 40.6464C84.5376 40.2953 83.7457 40.0198 83.2838 40.0684C82.7068 40.1292 81.9801 40.8943 81.5152 41.2129C80.717 41.7598 79.9826 42.4186 79.3072 43.1087C77.4889 44.9666 75.6686 46.8084 74.2439 49.0101C73.2576 50.5344 71.8799 51.8886 70.5968 53.1716C70.2107 53.5577 69.7735 54.055 69.3483 54.3739C69.0816 54.5739 68.9206 54.8969 68.6143 55.0501" stroke="currentColor" stroke-width="3" stroke-linecap="round"/>
<path d="M85.885 16.5555C85.885 15.1628 86.026 12.7753 84.7926 11.816C83.8483 11.0815 82.8448 11.2495 81.6714 11.2495C81.1124 11.2495 80.6832 11.8883 80.3709 12.2899C79.6878 13.1683 79.2811 14.102 78.8103 15.099C78.6942 15.3448 78.7089 16.2205 78.5502 16.3475C78.326 16.5268 78.082 17.0433 78.082 17.2838" stroke="currentColor" stroke-width="3" stroke-linecap="round"/>
<path d="M66.3257 27.7918C64.7382 27.7918 62.8468 27.5691 61.6208 28.7513C60.9547 29.3936 60.3306 29.9076 59.9793 30.7858C59.6962 31.4936 59.4278 32.346 59.5863 33.1209C59.9944 35.1164 62.8564 35.6798 64.5108 35.6988C65.6313 35.7117 66.7863 35.8028 67.8863 35.8028" stroke="currentColor" stroke-width="3" stroke-linecap="round"/>
<path d="M97.6416 26.6474C98.7358 26.6068 99.8215 26.5433 100.925 26.5433C102.279 26.5433 103.972 26.2585 105.236 26.8554C106.537 27.4697 106.82 28.5455 106.543 29.9766C106.274 31.3633 105.436 33.1096 103.884 33.3868C102.829 33.5751 101.621 33.4099 100.555 33.4099C99.6184 33.4099 98.682 33.4099 97.7456 33.4099" stroke="currentColor" stroke-width="3" stroke-linecap="round"/>
<path d="M86.7173 44.022C87.0481 45.0556 87.1335 46.0164 87.1335 47.0969C87.1335 48.1268 87.1971 49.1255 86.8676 50.1141C86.7276 50.5339 86.4831 51.269 86.0931 51.5359C85.6757 51.8215 85.5174 51.8249 84.9891 51.8249C82.9912 51.8249 80.5426 50.4478 79.2496 48.9581C78.72 48.3479 78.7259 47.1563 78.082 46.727" stroke="currentColor" stroke-width="3" stroke-linecap="round"/>
</svg>
