<svg width="132" height="132" viewBox="0 0 132 132" fill="none" xmlns="http://www.w3.org/2000/svg">
<path d="M6.3204 14.9725C6.3204 39.4748 7.15926 64.1276 6.08574 88.6037C5.69214 97.578 4.07381 106.406 3.9738 115.407C3.93837 118.595 3.03516 121.664 3.03516 124.794" stroke="currentColor" stroke-width="5" stroke-linecap="round"/>
<path d="M8.19824 10.7485C8.19824 13.7694 10.5429 16.6709 12.2657 18.9877C16.0464 24.0721 21.6946 28.138 26.5018 32.233C30.8461 35.9337 36.9596 41.3621 42.6933 42.6363C45.4391 43.2465 48.6764 42.4897 51.4801 42.7667C58.7125 43.481 66.0627 43.1317 73.3296 43.1317C79.9174 43.1317 86.5053 43.1317 93.0932 43.1317C94.3651 43.1317 97.4494 43.7328 98.3079 42.5581C100.78 39.1752 103.469 36.0933 105.817 32.572C108.526 28.5082 112.201 25.684 115.308 22.0122C116.902 20.1277 118.976 18.5452 120.94 17.1104C121.709 16.5484 122.318 15.4831 123.182 15.0767C123.973 14.7042 124.732 18.5854 124.825 18.9877C127.78 31.7951 128.344 44.76 128.344 57.9153C128.344 74.006 125.009 89.9945 124.225 106.073C123.854 113.678 123.651 121.402 123.651 129.017" stroke="currentColor" stroke-width="5" stroke-linecap="round"/>
<path d="M46.1455 88.1642C46.292 86.8455 51.658 86.1559 52.5443 85.9568C57.1819 84.915 61.8359 83.9298 66.4595 82.8272C67.8194 82.503 69.5137 82.0399 70.7347 81.3184C71.3555 80.9515 71.5422 80.6198 72.2994 80.6198" stroke="currentColor" stroke-width="3" stroke-linecap="round"/>
<path d="M72.5508 79.111C76.5255 80.7778 79.8557 84.0813 83.574 86.2362C86.5851 87.9813 89.3979 90.0071 92.292 91.9365C93.6382 92.8339 94.4001 92.9424 95.9384 92.9424" stroke="currentColor" stroke-width="3" stroke-linecap="round"/>
<path d="M45.1396 88.1642C45.1396 87.2656 44.374 86.8639 43.7704 86.2921C42.3319 84.9293 40.7055 83.6789 39.16 82.4361C36.668 80.4322 33.8632 78.7859 31.3082 76.8476C28.9988 75.0956 26.8391 73.1641 24.5043 71.4408C22.7168 70.1215 20.3377 68.5352 18.9857 66.7325C18.3831 65.9291 17.5359 64.8636 16.8341 64.1618C16.3798 63.7075 16.4907 62.8759 15.8561 62.5133C15.4922 62.3053 14.9444 61.1535 14.7664 60.7529C14.4666 60.0783 14.0666 59.3914 13.5788 58.7411C13.1778 58.2064 12.0148 57.1133 11.9442 56.4777C11.8918 56.0064 11.1515 54.9771 10.8824 54.4659C10.5991 53.9277 9.76323 52.7355 9.69486 52.1886C9.54353 50.9779 8.41985 49.2074 7.72493 48.1789C6.60914 46.5275 5.81443 44.4409 5.00056 42.6323C4.71647 42.001 2.69907 38.8507 2.94681 38.93C10.5437 41.361 18.2437 43.5227 25.7756 46.181C34.4256 49.234 43.385 51.3397 51.231 56.2262C54.0377 57.9743 56.7874 60.2505 59.8093 61.6051C60.5767 61.9491 62.1 63.2677 62.869 63.2677C63.7262 63.2677 64.1813 64.0221 65.0065 64.0221C66.136 64.0221 67.0737 63.9655 68.178 63.6449C73.1858 62.191 78.5318 61.5057 83.6161 60.3617C86.4177 59.7313 88.9519 59.0273 91.6634 58.0984C93.3142 57.5328 94.9836 56.8346 96.693 56.4777C100.3 55.7247 103.989 55.4688 107.618 54.8431C112.291 54.0374 116.949 53.46 121.715 53.46C123.341 53.46 124.996 53.3698 126.619 53.46C127.878 53.5299 130.391 55.6887 130.391 56.9807C130.391 57.6685 129.968 58.1723 129.525 58.6852C128.05 60.393 125.653 61.6927 123.853 63.0162C121.11 65.0331 118.387 67.159 115.847 69.429C113.402 71.615 111.388 74.1833 109.099 76.5123C106.57 79.0872 104.082 81.576 101.974 84.5038C101.324 85.4074 100.669 86.404 99.8365 87.1443C99.2528 87.6633 98.6715 88.6783 97.9504 88.9187" stroke="currentColor" stroke-width="3" stroke-linecap="round"/>
<path d="M97.1963 92.6909C97.3376 90.8539 99.4963 88.8637 100.466 87.4098" stroke="currentColor" stroke-width="3" stroke-linecap="round"/>
<path d="M29.4395 100.19C29.4395 101.088 30.4035 101.7 31.0497 102.203C35.1108 105.361 40.1139 107.899 44.8433 109.875C55.3542 114.267 67.4937 117.027 78.9306 117.027C79.3714 117.027 79.6338 116.888 80.0435 116.766C81.943 116.201 83.7272 115.204 85.6202 114.587C90.5982 112.965 95.8933 112.131 101.048 111.272" stroke="currentColor" stroke-width="3" stroke-linecap="round"/>
<path d="M76.752 34.7623C76.752 34.0085 77.8178 31.7044 78.4569 31.305C78.992 30.9706 79.1234 30.9261 79.8422 30.9261C80.5998 30.9261 81.1783 31.318 81.8668 31.3524C83.2318 31.4206 84.319 32.0686 85.703 31.9917C86.7844 31.9317 87.1002 29.8368 87.6684 29.2685C88.1982 28.7388 90.2183 29.4343 90.8179 29.4343C92.5495 29.4343 93.3768 28.4401 94.6066 27.2557C95.2002 26.6842 95.8594 26.2375 96.6786 26.2375C97.384 26.2375 97.6572 27.1215 98.2297 27.3505C99.0675 27.6856 99.5085 26.5199 100.195 26.2257C100.796 25.968 101.922 25.1497 102.326 24.7457" stroke="currentColor" stroke-width="3" stroke-linecap="round"/>
<path d="M73.9814 31.3524C73.9814 29.7268 75.0382 28.1332 75.4851 26.569C75.6731 25.911 77.7798 26.2375 78.2912 26.2375C79.5701 26.2375 80.2839 26.6246 81.559 26.0125C82.4443 25.5876 87.1966 21.9751 87.8461 22.7329C89.8032 25.0162 91.3368 22.4014 93.4819 22.4014C94.0189 22.4014 94.2676 22.8276 94.7606 22.8276C95.4686 22.8276 96.2471 22.9245 96.9036 22.6145C98.0546 22.071 98.8771 21.0357 99.982 20.4833" stroke="currentColor" stroke-width="3" stroke-linecap="round"/>
<path d="M98.9164 14.516C98.2355 14.516 97.466 14.8635 96.7852 14.9896C95.376 15.2505 93.9396 15.272 92.5464 15.5816C91.6336 15.7844 89.741 16.2097 89.0063 15.475C86.7086 13.1773 87.983 9.46367 90.6994 8.22894C91.289 7.96093 93.9832 6.73891 94.0146 6.2043C94.109 4.59939 90.8502 4.00815 89.6338 3.43375C88.5755 2.93398 87.2019 2.58127 86.0345 2.58127C85.2937 2.58127 84.8914 2.15503 84.1637 2.15503C81.9396 2.15503 80.0055 2.56708 77.9833 3.43375C74.2949 5.01446 72.9506 8.12403 71.5305 11.5323C71.0107 12.7797 70.5603 14.2507 70.3702 15.5816C70.1836 16.8878 69.719 17.9275 69.719 19.3112C69.719 20.1379 69.1715 21.3295 69.5532 22.1883C69.9437 23.0669 70.2985 23.917 70.7372 24.7457C71.0232 25.2859 72.1867 25.6881 72.2764 26.4507C72.3876 27.3957 73.4745 28.461 73.9814 29.2212" stroke="currentColor" stroke-width="3" stroke-linecap="round"/>
<path d="M82.7189 8.54858C81.889 9.32969 81.1618 9.87794 80.422 10.7982C79.9382 11.3999 79.5786 12.1484 79.0959 12.7163C78.0082 13.9959 78.0303 16.2342 78.0303 17.8311C78.0303 19.7251 78.6292 20.9542 79.2617 22.6618C79.756 23.9965 80.9886 24.2002 82.0796 24.7457" stroke="currentColor" stroke-width="3" stroke-linecap="round"/>
<path d="M89.539 7.48302C87.1128 7.48302 84.6699 7.38978 82.2456 7.48302C81.9122 7.49584 80.7139 7.62843 80.5999 8.02766C80.4831 8.43632 79.3432 8.93672 80.3275 8.59598C81.5794 8.16263 82.9385 8.43258 84.2111 8.02766C85.628 7.5768 87.1734 7.69614 88.6392 7.69614C89.6888 7.69614 90.6587 7.05678 91.6702 7.05678C93.7323 7.05678 91.5591 6.36617 90.6046 6.09774C86.9566 5.07174 83.4148 4.71246 79.629 4.71246C78.9959 4.71246 76.5149 5.56494 78.2437 5.56494C79.4423 5.56494 82.9471 4.78009 81.8194 5.18606C80.9962 5.48241 80.1883 5.62198 79.3567 5.87278C78.3259 6.18363 77.3543 7.02609 76.444 7.58958C74.9559 8.51081 74.4321 10.2621 73.6024 11.6981C72.9355 12.8523 72.9439 13.9883 72.7144 15.25C72.6349 15.6874 72.5304 16.0355 72.7973 15.4868C73.3847 14.2795 74.1755 13.1526 74.8338 11.9822C75.2281 11.2812 75.8233 10.7559 76.2191 10.0523C76.3032 9.90272 76.8477 8.99455 76.7045 9.49582C76.3496 10.738 75.4531 11.7459 74.8338 12.8584C73.873 14.5842 73.1401 16.2801 72.4895 18.139C72.0987 19.2555 71.8737 20.4091 71.5186 21.5252C71.4159 21.8481 70.943 22.6433 71.2581 22.9934C71.7461 23.5356 73.1557 20.154 73.2236 19.844C73.5369 18.4114 73.9813 14.0441 73.9813 15.5105C73.9813 18.674 73.7083 22.0181 74.23 25.1483C74.2487 25.261 75.2997 27.7045 75.4731 26.6638C75.6226 25.7671 76.3982 24.8485 76.6216 23.9051C76.8949 22.7514 77.1523 21.3844 77.1781 20.1992C77.1866 19.808 77.1781 18.8784 77.1781 19.8913C77.1781 20.9411 77.1781 21.9909 77.1781 23.0408C77.1781 25.2318 76.7961 18.672 76.7519 16.4814C76.7128 14.5451 76.1125 12.7358 76.1125 10.7864C76.1125 10.3095 75.944 9.4512 76.3256 9.06958C76.8243 8.57095 77.1342 10.7333 77.2018 10.9285C78.1937 13.794 79.0962 16.8295 79.0962 19.8913C79.0962 20.7148 79.0171 21.5584 79.2619 22.354C79.3857 22.7562 79.3177 21.699 79.2975 21.5371C79.1218 20.1315 78.8831 18.9569 78.8831 17.4996C78.8831 16.8355 79.047 12.1471 79.5224 12.3848" stroke="currentColor" stroke-width="3" stroke-linecap="round"/>
<path d="M79.7968 24.2542C79.471 24.0172 79.0382 24.1286 78.6632 24.0274C77.9587 23.8373 77.3191 23.5702 76.5879 23.4694C76.0958 23.4015 75.2062 23.0058 75.0095 23.635C74.9288 23.8935 74.8907 24.2108 74.9398 24.4809C74.9645 24.6167 75.3897 24.7928 75.2973 24.6902C74.668 23.991 73.5472 23.7258 72.7685 23.2252C72.3772 22.9737 72.3031 22.7103 72.0273 22.3794C72.0036 22.3509 72.1239 23.2605 72.4895 23.4694C73.1125 23.8254 73.816 19.4351 73.9544 18.7606C74.1271 17.9189 74.1679 17.7449 74.7043 18.5338C75.4922 19.6925 76.3347 20.9464 76.8146 22.266C77.1193 23.104 76.5032 20.5099 76.3437 19.6326C75.945 17.4398 75.5589 15.3405 75.5589 13.11C75.5589 11.7909 76.4527 9.46377 77.9133 9.04646C78.1368 8.98259 79.0789 8.89757 78.8551 9.22086C78.5647 9.64022 78.0443 10.0622 77.5994 10.2847" stroke="currentColor" stroke-width="3" stroke-linecap="round"/>
<path d="M55.9529 60.4448C55.5847 60.4908 53.9709 62.514 53.6642 62.9043C52.8311 63.9646 52.1961 65.4534 51.2048 66.3031C50.3873 67.0038 50.0064 68.2359 49.1894 69.0529C48.1464 70.0959 47.2092 71.4243 46.4225 72.6738C45.3525 74.3731 44.3157 76.6593 42.8699 78.1051C42.2867 78.6883 41.5115 79.2653 40.957 79.8813C40.3394 80.5676 40.1036 81.6244 39.3516 80.1204" stroke="currentColor" stroke-width="3" stroke-linecap="round"/>
<path d="M47.3451 54.9111C47.3254 55.0682 46.2346 56.314 46.047 56.5165C44.5569 58.1259 42.9635 59.7436 41.6576 61.5038C40.3635 63.248 38.9989 64.9305 37.7122 66.6959C37.2915 67.2732 36.1841 68.882 35.526 69.07C35.172 69.1711 35.4946 69.6992 35.2869 69.9069C35.0792 70.1146 34.5512 69.792 34.45 70.146C34.242 70.8742 33.8146 71.2085 33.2032 71.8198C32.5801 72.4429 30.8326 74.5867 30.1289 74.5867" stroke="currentColor" stroke-width="3" stroke-linecap="round"/>
<path d="M86.5032 61.768C86.5032 64.281 85.8821 66.7603 85.5023 69.2289C85.0714 72.0302 84.2903 74.7816 83.5864 77.5189C83.1895 79.0625 82.8477 80.7687 82.1434 82.2165C82.0116 82.4874 81.8218 82.7516 81.7565 83.0455C81.6277 83.6249 81.5689 82.6156 81.5293 82.4375" stroke="currentColor" stroke-width="3" stroke-linecap="round"/>
<path d="M103.747 56.4625C103.747 56.9606 103.66 57.3736 103.532 57.8564C103.172 59.2048 102.924 60.683 102.696 62.0628C102.09 65.7473 100.92 69.3722 100.498 73.0791C100.198 75.7169 100.006 78.3512 99.0796 80.8655C98.512 82.4062 98.0568 83.9234 97.7532 85.5324C97.6288 86.1917 97.363 86.8188 97.219 87.4668C97.1121 87.9477 96.4514 88.4372 96.4514 88.9098C96.4514 89.1319 96.1712 89.9361 96.0338 90.0888C95.6542 90.5106 95.8141 90.9199 95.125 90.5064" stroke="currentColor" stroke-width="3" stroke-linecap="round"/>
<path d="M93.7986 88.7379C93.5924 88.7172 93.4669 88.5925 93.3442 88.4308C92.927 87.8809 92.5118 87.3764 92.0056 86.9018C90.7055 85.683 89.1787 84.6162 87.7132 83.6043C86.7467 82.9369 85.7625 82.2716 84.7903 81.6147C84.2212 81.2302 83.7794 80.7284 83.249 80.2944C82.8011 79.928 82.8537 80.383 83.0156 80.7427C83.6515 82.1557 84.7317 83.329 85.9263 84.292C86.8261 85.0174 88.054 85.5647 89.1563 85.9254C89.2465 85.955 90.376 86.266 90.0774 85.864C89.3187 84.8427 88.1731 83.8268 87.1667 83.0639C86.46 82.5281 85.6432 82.2342 84.864 81.8296C84.6965 81.7427 83.9394 81.1589 83.7156 81.3506C83.6088 81.4422 84.679 82.8951 84.7473 82.9963C85.4675 84.0633 86.3416 84.9768 87.3325 85.7965C89.2606 87.3913 91.3528 88.7714 93.4978 90.052C93.5873 90.1054 95.1158 91.1606 95.211 90.8748C95.375 90.3827 95.286 89.4417 95.125 88.9589C94.0856 85.8406 94.8753 82.1475 95.3215 78.9742C95.8708 75.0686 95.8296 70.9362 97.655 67.3683C97.8507 66.9857 98.0731 66.6561 98.3182 66.306C98.3439 66.2693 98.5283 65.8716 98.5454 65.9314C98.6451 66.2805 98.4322 66.8617 98.3857 67.2025C98.2385 68.2822 98.1615 69.3677 98.048 70.4509C97.7594 73.2061 97.5676 75.9932 97.5567 78.7654C97.5516 80.0808 97.5164 81.4057 97.5813 82.72C97.6051 83.2023 97.5122 84.0834 97.7532 84.5254C97.9164 84.8245 97.508 83.8816 97.4708 83.5429C97.38 82.7165 97.4462 81.8547 97.4462 81.0252C97.4462 78.0071 97.5034 74.9854 98.1585 72.0229C98.9872 68.2759 102.314 57.2469 101.358 60.9636C100.865 62.8787 100.589 64.8001 100.32 66.7604C100.013 68.9974 99.6599 71.2955 99.5525 73.552C99.544 73.7287 99.5463 74.2083 99.5463 73.7239C99.5463 72.7908 99.6876 71.8579 99.7735 70.9299C100.04 68.053 100.582 65.1772 100.922 62.3022C101.101 60.787 101.27 59.2502 101.542 57.752C101.6 57.4307 101.581 57.4286 101.192 57.623C100.561 57.9386 99.7149 58.1021 99.0305 58.2555C97.2216 58.661 95.3573 58.8921 93.5776 59.4223C92.6388 59.7019 91.6847 60.0891 90.7897 60.4907C90.3982 60.6664 90.0245 60.904 89.623 61.0557C89.4311 61.1281 89.2643 61.0747 89.1072 61.2153C88.8197 61.4725 88.4102 61.2895 88.1676 61.4917C87.9266 61.6925 88.0694 62.1786 88.1062 62.4435C88.4164 64.6764 88.5461 66.8614 87.9957 69.0631C87.3483 71.6526 86.021 73.9658 85.7544 76.6653C85.6628 77.592 85.8403 78.4137 85.8403 79.3426C85.8403 79.8988 85.7684 80.4763 86.0614 80.976C86.2512 81.2998 86.1117 81.6484 86.393 81.9463C87.0972 82.6919 88.3923 83.1272 89.4019 83.2727C90.6061 83.4461 91.963 83.4323 93.1846 83.4323C93.8183 83.4323 94.4462 83.5429 95.0698 83.5429C95.749 83.5429 95.4541 82.5274 95.5119 81.9954C95.7079 80.1922 95.5672 78.3186 95.5672 76.5056C95.5672 72.4011 96.0649 68.3835 96.476 64.3102C96.5907 63.1732 97.0026 62.039 97.6673 61.1294C98.1493 60.4697 99.1459 60.1255 99.8165 59.7231C100.221 59.4803 100.105 60.1102 100.081 60.3618C99.991 61.2874 99.64 62.2021 99.4296 63.1067C99.0427 64.7705 98.6819 66.4455 98.2813 68.1052C98.0284 69.1531 98.1009 67.9881 98.1155 67.4911C98.1685 65.6913 98.5809 63.9061 98.6559 62.1057C98.6712 61.7379 98.6621 61.3685 98.6621 61.0004C98.6621 60.6447 98.5657 61.0327 98.4656 61.1969C97.3332 63.054 96.1062 64.8565 95.0206 66.7419C94.4837 67.6745 93.7937 68.8638 93.553 69.9228C93.5122 70.1024 93.3793 70.3264 93.5407 70.0334C94.0311 69.1434 94.2025 68.1712 94.4618 67.1964C94.9661 65.3008 95.8596 63.4273 96.1444 61.4855C96.189 61.1811 96.2432 60.8859 96.2304 60.5767C96.2289 60.5423 95.8621 61.0144 95.7637 61.1048C94.2237 62.5185 93.2177 64.4368 91.7477 65.9068C91.5494 66.1051 91.6328 65.7298 91.6494 65.6612C91.7887 65.084 91.7664 64.4796 91.938 63.9111C92.2264 62.9559 92.6326 61.914 93.0802 61.0188C93.5653 60.0486 92.0257 62.9244 91.6494 63.9418C91.3908 64.6409 91.0547 65.3155 90.8388 66.0296C90.79 66.1911 90.7691 66.7758 90.6178 66.8893C90.2903 67.1349 90.7154 66.076 90.7897 65.6735C90.9284 64.9221 90.9608 64.1389 91.0108 63.3769C91.0459 62.8414 91.0353 62.3042 91.0353 61.768C91.0353 61.2717 90.9411 61.4666 90.8143 61.8662C90.2039 63.7898 90.1357 65.952 89.8195 67.9394C89.5148 69.8544 89.2772 71.775 88.8861 73.6748C88.799 74.098 88.8029 73.9058 88.8922 73.6379C89.075 73.0898 89.1677 72.5325 89.3344 71.9799C89.7662 70.5481 89.849 68.9306 90.5932 67.6016C90.8674 67.1121 90.7724 68.1077 90.7651 68.1666C90.6213 69.3345 90.2995 70.4788 90.0651 71.6299C89.6436 73.7 89.2598 75.7778 88.8247 77.8443C88.5585 79.1089 88.1962 80.7042 87.2527 81.5778C86.5501 82.2283 85.3019 82.9223 84.3543 83.0946C84.177 83.1268 83.6574 83.0236 83.8139 83.113C84.4133 83.4555 84.4312 83.8971 84.5815 84.5315C84.8801 85.7924 85.4211 86.468 86.5526 87.0185C87.2826 87.3736 88.1941 87.7258 88.9844 87.915C89.4284 88.0213 89.7937 87.9997 90.2248 88.1852C90.7225 88.3994 91.2418 88.6455 91.7845 88.7133C92.6958 88.8272 93.7085 88.8099 94.5478 88.4308C95.704 87.9087 96.2209 86.534 96.4023 85.3605C96.5403 84.4676 96.5249 83.4075 96.0093 82.634C95.8157 82.3436 95.5852 82.1904 95.297 82.4867C93.8185 84.0061 93.467 86.4917 93.467 88.5168C93.467 89.1992 93.1113 88.6032 93.0126 88.3142C92.3202 86.2864 92.0301 84.0915 92.0301 81.9586C92.0301 81.3977 92.0301 80.8369 92.0301 80.276C92.0301 80.1137 92.1031 81.3256 92.1161 81.541C92.1968 82.8822 92.1832 84.1361 92.4477 85.4587C92.4837 85.6387 92.4384 85.8173 92.5214 85.5202C92.8765 84.2493 93.1811 82.9647 93.5162 81.6884C94.841 76.6422 96.3829 71.6593 97.5936 66.5823C97.7724 65.8325 97.9429 65.0635 97.9927 64.2918C98.0333 63.6622 97.8755 64.675 97.8515 64.7524C97.4002 66.2088 96.6551 67.5688 96.1812 69.0263C95.5724 70.8986 95.041 72.8153 94.6399 74.7433C94.367 76.0549 94.0558 77.3831 93.8662 78.7101C93.8447 78.8606 93.8875 80.0519 93.7372 80.1164C93.6219 80.1658 93.4718 77.9911 93.467 77.8627C93.4003 76.0607 93.3565 74.2623 93.3565 72.4589C93.3565 70.2697 93.3374 68.0737 93.5776 65.8945C93.6484 65.2518 93.7986 64.5973 93.7986 63.9479C93.7986 63.3558 93.7166 65.1303 93.6328 65.7165C93.3983 67.3582 93.2699 69.0007 92.9697 70.6351C92.4963 73.212 91.9433 75.7456 91.7538 78.3601C91.7458 78.4705 91.6797 80.332 91.8705 79.5146C92.387 77.3008 92.4118 74.9135 92.6933 72.6616C92.8318 71.5537 93.1355 70.3919 93.1355 69.2719C93.1355 69.011 92.5129 70.7013 92.4723 70.8439C91.6349 73.7806 90.6014 76.6467 89.8195 79.6005C89.7149 79.9956 89.4879 80.5291 89.4879 80.9269C89.4879 81.6221 89.7884 79.5637 89.8318 78.8698C89.9052 77.6949 90.308 76.2676 89.9791 75.0933C89.8176 74.5162 89.3959 74.0414 89.1624 73.4967C88.9063 72.8991 88.0757 74.6752 88.0018 74.8169C87.6058 75.5773 87.179 76.5287 87.1667 77.4022C87.1625 77.6979 87.0424 78.9811 87.6948 78.6549C88.2348 78.3849 88.2136 76.767 88.2475 76.2846C88.293 75.6358 88.272 74.9818 88.272 74.3318C88.272 73.7664 88.2946 74.9731 88.2966 75.0073C88.4203 77.152 88.6297 79.291 89.4879 81.2831C90.0724 82.6401 90.7608 83.8802 91.0967 85.3359C91.1279 85.4709 91.1198 86.0042 91.3424 86.036C91.5057 86.0593 91.1522 85.7465 91.1459 85.5816C91.1106 84.6635 91.236 83.8336 90.8143 82.9902" stroke="currentColor" stroke-width="3" stroke-linecap="round"/>
<path d="M52.6796 61.8785C52.2285 62.8218 51.3998 63.5368 50.862 64.4269C50.4203 65.158 49.9454 65.849 49.4496 66.5455C47.9252 68.687 46.2859 70.8222 44.5494 72.7967C43.7435 73.713 43.0249 75.1371 41.9089 75.6951C41.5538 75.8726 41.1776 75.9719 40.9018 76.2477C40.6816 76.4679 40.3413 76.7966 40.079 76.9355C39.7425 77.1136 39.7405 77.4213 39.5017 77.6601C39.3034 77.8584 38.7526 78.2174 38.7526 78.5136C38.7526 79.5729 35.9548 78.0357 35.6577 77.9057C34.6002 77.4431 33.5433 76.8883 32.4768 76.4934C32.1574 76.3751 31.2274 76.0267 31.568 76.0267C31.9673 76.0267 32.2304 76.0676 32.5628 75.8302C33.221 75.36 33.9512 74.9207 34.5278 74.3441C35.841 73.0309 36.8043 71.2448 37.8315 69.714C39.5317 67.1803 41.8203 65.0876 43.5362 62.5663C44.0838 61.7617 44.5045 60.7818 44.7152 59.8337C44.7648 59.6104 45.1993 59.2738 45.3845 59.1091C45.8661 58.681 46.2662 58.1722 46.8276 57.8564C47.5135 57.4706 48.5174 57.7888 49.2531 57.7888C49.905 57.7888 50.7738 57.6335 51.4024 57.8011C51.7527 57.8945 51.8137 58.5314 51.9305 58.8082C52.171 59.3784 52.4809 59.9119 52.7042 60.4907C52.9259 61.0654 53.0559 61.7912 53.3674 62.3207C53.6035 62.7221 53.606 62.1217 53.0972 62.0996C52.152 62.0585 51.2777 62.158 50.3585 62.3452C49.9499 62.4284 49.4179 62.6836 49.0935 62.9409C48.9429 63.0603 48.3317 63.868 48.111 63.7944C48.1029 63.7917 48.7706 62.3395 48.8356 62.2347C49.2758 61.5247 49.8128 60.7527 50.5243 60.2942C50.847 60.0863 52.6019 59.2445 52.3296 60.2881C52.2041 60.7693 51.8765 61.2996 51.6848 61.768C51.4207 62.4137 51.0909 63.0948 50.7392 63.6962C49.7205 65.4378 48.4534 67.1476 47.1776 68.707C45.0875 71.2615 42.1587 72.8736 39.8825 75.2284C39.4523 75.6733 39.0911 76.2271 38.7034 76.7144C38.5598 76.8951 37.6309 78.2924 38.1139 77.5864C38.4271 77.1287 38.6285 76.5527 38.9184 76.0697C39.4982 75.1032 40.0108 74.0953 40.5211 73.0914C41.7068 70.7591 42.8858 68.4047 44.1195 66.1033C44.1899 65.972 44.4143 65.1322 44.5617 65.0901C44.6587 65.0624 43.9243 65.8954 43.8371 66.0174C43.063 67.0992 42.3835 68.3071 41.7369 69.4684C40.7955 71.1595 39.7592 72.8182 38.8692 74.5345C38.4089 75.4223 37.9149 76.2502 37.3648 77.0829C37.3293 77.1366 37.0295 77.7595 36.9902 77.4452C36.9077 76.7853 37.286 76.162 37.5613 75.5968C38.1593 74.3693 38.7158 73.1443 39.4035 71.9615C40.4468 70.167 41.657 68.4341 43.2168 67.0428C44.0185 66.3279 43.2949 67.3485 43.0879 67.6262C42.176 68.8497 41.2697 70.0741 40.4106 71.3352C39.6796 72.4081 37.4379 75.5929 38.1631 74.5161C38.9832 73.2983 40.165 72.295 41.1045 71.1694C42.6691 69.2948 44.2223 67.4128 45.8021 65.5507C47.2338 63.863 48.5814 62.123 49.904 60.3495C50.4683 59.5929 51.1983 58.8184 51.5498 57.9239C51.6952 57.5538 51.5356 58.1857 51.4883 58.2801C50.8256 59.6056 50.1752 60.9309 49.5295 62.2654C48.6899 64.0005 48.1835 65.8459 47.4355 67.6139C47.0043 68.633 46.5569 67.5002 46.3854 66.8893C45.7252 64.5373 46.0841 61.7845 46.496 59.4161C46.5171 59.2949 46.7967 57.7832 46.6618 58.5134C46.4314 59.7602 46.3879 60.9819 46.324 62.247C46.1931 64.8389 46.2509 67.4539 46.0354 70.0395C46.0068 70.3831 45.7161 71.5491 45.7161 71.5255C45.7161 69.5372 46.4855 67.5538 46.7109 65.5814C46.8149 64.6709 47.1066 63.8243 47.3987 62.9593C47.6208 62.3014 47.4846 62.0271 47.4846 61.3627C47.4846 60.8203 47.4846 60.2779 47.4846 59.7354C47.4846 59.4651 47.6168 59.4615 47.6811 59.2258C48.5962 55.8704 46.4181 66.3039 44.3836 69.1245C43.0096 71.0294 41.4553 72.6444 39.643 74.1415C38.8761 74.775 37.9512 75.5997 37.0393 76.0205C36.4789 76.2792 35.4734 75.8424 34.8839 75.6951" stroke="currentColor" stroke-width="3" stroke-linecap="round"/>
</svg>
