<svg width="131" height="124" viewBox="0 0 131 124" fill="none" xmlns="http://www.w3.org/2000/svg">
<path d="M6.3204 6.97247C6.3204 31.4748 7.15926 56.1276 6.08574 80.6037C5.69214 89.578 4.07381 98.4063 3.9738 107.407C3.93837 110.595 3.03516 113.664 3.03516 116.794" stroke="currentColor" stroke-width="5" stroke-linecap="round"/>
<path d="M8.19824 2.74854C8.19824 5.76935 10.5429 8.67093 12.2657 10.9877C16.0464 16.0721 21.6946 20.138 26.5018 24.233C30.8461 27.9337 36.9596 33.3621 42.6933 34.6363C45.4391 35.2465 48.6764 34.4897 51.4801 34.7667C58.7125 35.481 66.0627 35.1317 73.3296 35.1317C79.9174 35.1317 86.5053 35.1317 93.0932 35.1317C94.3651 35.1317 97.4494 35.7328 98.3079 34.5581C100.78 31.1752 103.469 28.0933 105.817 24.572C108.526 20.5082 112.201 17.684 115.308 14.0122C116.902 12.1277 118.976 10.5452 120.94 9.11044C121.709 8.54842 122.318 7.48315 123.182 7.07672C123.973 6.70421 124.732 10.5854 124.825 10.9877C127.78 23.7951 128.344 36.76 128.344 49.9153C128.344 66.006 125.009 81.9945 124.225 98.0728C123.854 105.678 123.651 113.402 123.651 121.017" stroke="currentColor" stroke-width="5" stroke-linecap="round"/>
</svg>
