<svg width="271" height="245" viewBox="0 0 271 245" fill="none" xmlns="http://www.w3.org/2000/svg">
<path d="M10.3884 234.619C10.3884 224.823 12.1012 214.805 13.0747 205.07C15.106 184.757 16.8487 164.552 21.3325 144.579C26.1378 123.173 28.0103 101.318 31.6797 79.7098C34.5294 62.9286 36.1817 45.0444 36.3559 27.9738C36.3833 25.2862 34.526 14.1385 36.5549 11.8561C36.8459 11.5287 37.704 12.5265 38.1467 12.5525C39.0272 12.6043 40.0001 12.3813 40.833 12.7515C49.0368 16.3977 54.5297 23.6316 61.6269 29.3667C73.6146 39.0538 88.481 44.0208 99.7324 54.4388C101.959 56.5007 106.464 60.5902 108.886 61.8012" stroke="white" stroke-width="19" stroke-linecap="round"/>
<path d="M109.781 61.8012C114.4 61.8012 118.917 60.8834 123.511 60.4581C139.325 58.9938 155.552 60.0103 171.417 60.0103C172.37 60.0103 201.282 61.8878 201.961 59.5129C204.341 51.1803 214.95 43.5724 220.815 37.6246C226.783 31.5713 232.401 25.2248 238.723 19.517C241.879 16.6676 245.401 11.222 249.468 9.86625" stroke="white" stroke-width="19" stroke-linecap="round"/>
<path d="M249.468 9.86625C254.918 22.6531 256.301 36.4668 257.527 50.2601C260.193 80.2533 262.003 111.322 259.666 141.445C258.132 161.212 255.736 180.75 255.736 200.593C255.736 206.861 255.736 213.129 255.736 219.397C255.736 222.334 255.151 225.709 257.527 227.953C259.214 229.547 259.318 229.083 259.318 231.933" stroke="white" stroke-width="19" stroke-linecap="round"/>
<path d="M93.6634 111.05C92.2136 111.05 77.7165 115.3 77.9436 115.527C83.866 121.449 90.6436 117.149 94.509 111.995C100.198 104.41 72.9871 109.178 81.1273 117.318C83.082 119.273 89.1204 118.872 90.2806 116.422C92.0943 112.594 87.8276 108.453 85.6045 112.343C85.2178 113.02 83.862 114.413 84.908 115.328C85.469 115.819 85.6163 109.451 85.505 108.811C85.1235 106.618 81.0888 102.096 78.64 102.096C76.7519 102.096 76.7843 111.365 76.6502 112.841" stroke="white" stroke-width="19" stroke-linecap="round"/>
<path d="M195.743 110.154C191.804 104.594 187.684 112.801 187.684 117.119C187.684 125.702 200.586 127.661 207.284 126.173C214.361 124.6 206.554 115.837 202.21 115.527C199.303 115.319 194.847 112.83 194.847 117.815C194.847 121.615 199.218 124.984 198.379 119.109C197.555 113.338 182.596 114.113 192.758 124.68C193.937 125.907 210.965 139.608 210.965 131.993C210.965 125.726 203.313 120.9 197.533 120.9" stroke="white" stroke-width="19" stroke-linecap="round"/>
<path d="M91.8725 144.181C91.8725 152.723 94.2189 161.496 97.6431 169.303C99.7266 174.053 102.838 181.091 107.99 183.381C113.442 185.804 119.607 173.694 121.82 170.596C124.372 167.023 125.603 162.832 127.491 158.906C129.123 155.51 128.404 156.945 129.083 159.95C131.679 171.448 139.164 197.651 156.294 194.225C165.232 192.438 170.825 178.359 174.252 171.442C176.584 166.734 181.681 158.773 176.938 154.03" stroke="white" stroke-width="19" stroke-linecap="round"/>
</svg>
