<svg width="541" height="230" viewBox="0 0 541 230" fill="none" xmlns="http://www.w3.org/2000/svg">
<path d="M91.4545 226.488C80.3453 168.531 68.401 110.656 60.4243 52.1598C60.2206 50.6658 59.1549 40.0118 57.8728 42.1182C41.3104 69.3279 23.78 96.0049 7.25326 123.274C6.6805 124.219 1.5773 132.164 3.54939 132.822C13.844 136.253 30.5992 133.057 40.9173 132.163C66.6905 129.931 92.171 124.486 117.793 120.969C127.724 119.606 137.688 116.854 147.753 116.854" stroke="white" stroke-width="6" stroke-linecap="round"/>
<path d="M241.091 76.8522C235.86 61.9874 233.23 40.3449 216.069 34.7928C208.555 32.3618 207.751 42.7876 205.451 47.9621C197.415 66.0428 192.176 87.1331 188.413 106.483C185.842 119.708 181.829 133.703 181.829 147.226C181.829 160.093 181.829 172.961 181.829 185.828C181.829 187.832 180.425 206.51 182.652 207.146C185.791 208.043 189.86 207.028 193.105 207.311C203.975 208.256 214.594 208.379 225.534 208.792C252.971 209.828 281.118 207.731 307.76 199.738C318.538 196.505 329.865 195.376 341.095 195.376C348.176 195.376 355.068 192.413 362.248 192.413C375.329 192.413 364.15 178.011 362.907 169.531C359.091 143.518 357.471 117.579 356.651 91.3385C356.239 78.1569 349.745 65.0401 349.243 51.9952C348.864 42.1409 344.737 39.7704 337.062 45.7398C324.396 55.591 310.312 64.3414 299.2 75.8645C293.745 81.5219 292.188 85.5492 283.726 85.7415C272.803 85.9898 262.651 90.1862 251.461 90.1862" stroke="white" stroke-width="6" stroke-linecap="round"/>
<path d="M230.72 130.188C232.875 133.062 242.687 139.785 246.688 135.785C248.493 133.979 236.562 134.633 239.115 134.633C242.517 134.633 252.039 128.706 244.383 128.706C238.332 128.706 241.527 128.706 245.535 128.706" stroke="white" stroke-width="6" stroke-linecap="round"/>
<path d="M295.908 121.299C286.252 128.165 297.97 127.225 303.892 127.225C306.565 127.225 298.483 127.199 295.908 126.484C288.271 124.363 288.656 127.162 295.908 124.262" stroke="white" stroke-width="6" stroke-linecap="round"/>
<path d="M244.054 182.042C245.641 180.177 271.11 141.58 280.845 147.143C286.366 150.298 298.871 161.447 298.871 168.708" stroke="white" stroke-width="6" stroke-linecap="round"/>
<path d="M488.509 190.931C481.268 138.739 473.02 86.4867 467.603 34.052C466.649 24.822 466.616 17.2129 467.767 8.28956C468.859 -0.173256 468.805 3.79252 467.438 10.6765C460.036 47.9514 446.583 82.7013 433.116 117.924C430.381 125.077 434.975 122.274 440.935 121.299C456.793 118.704 472.613 115.533 488.509 113.232C504.159 110.967 521.589 107.965 537.4 107.965" stroke="white" stroke-width="6" stroke-linecap="round"/>
</svg>
