<svg width="327" height="199" viewBox="0 0 327 199" fill="none" xmlns="http://www.w3.org/2000/svg">
<path d="M126.831 185.01C126.831 177.569 128.132 169.959 128.871 162.565C130.414 147.135 131.738 131.787 135.144 116.615C138.794 100.356 140.216 83.7551 143.004 67.3411C145.168 54.5942 146.423 41.0094 146.556 28.0426C146.576 26.0011 145.166 17.5333 146.707 15.7996C146.928 15.5509 147.58 16.3088 147.916 16.3286C148.585 16.368 149.324 16.1986 149.956 16.4798C156.188 19.2494 160.36 24.7443 165.751 29.1007C174.857 36.4589 186.15 40.2319 194.696 48.1453C196.388 49.7116 199.809 52.818 201.649 53.7378" stroke="#A6FFB0" stroke-width="19" stroke-linecap="round"/>
<path d="M202.329 53.7378C205.838 53.7378 209.269 53.0407 212.759 52.7176C224.771 51.6053 237.097 52.3775 249.147 52.3775C249.872 52.3775 271.833 53.8036 272.349 51.9996C274.157 45.6702 282.216 39.8913 286.67 35.3733C291.203 30.7753 295.471 25.9544 300.273 21.6188C302.671 19.4544 305.346 15.318 308.435 14.2881" stroke="#A6FFB0" stroke-width="19" stroke-linecap="round"/>
<path d="M308.435 14.2881C312.575 24.001 313.625 34.4938 314.557 44.9712C316.582 67.754 317.957 91.3538 316.182 114.235C315.017 129.25 313.196 144.091 313.196 159.164C313.196 163.925 313.196 168.686 313.196 173.447C313.196 175.679 312.752 178.242 314.557 179.947C315.838 181.157 315.917 180.804 315.917 182.97" stroke="#A6FFB0" stroke-width="19" stroke-linecap="round"/>
<path d="M190.086 91.147C188.985 91.147 177.973 94.3754 178.146 94.5478C182.644 99.0465 187.792 95.7799 190.729 91.865C195.05 86.1034 174.381 89.7248 180.564 95.9082C182.049 97.393 186.635 97.0885 187.517 95.228C188.894 92.3197 185.653 89.1744 183.965 92.1295C183.671 92.6435 182.641 93.7014 183.436 94.3967C183.862 94.7695 183.974 89.9326 183.889 89.4466C183.599 87.7803 180.535 84.3453 178.675 84.3453C177.24 84.3453 177.265 91.3868 177.163 92.5073" stroke="#A6FFB0" stroke-width="19" stroke-linecap="round"/>
<path d="M267.625 90.4668C264.633 86.243 261.504 92.4775 261.504 95.757C261.504 102.277 271.304 103.765 276.392 102.634C281.768 101.44 275.838 94.7836 272.538 94.5478C270.33 94.3902 266.945 92.499 266.945 96.286C266.945 99.1724 270.266 101.731 269.628 97.2685C269.002 92.8854 257.64 93.4734 265.358 101.501C266.254 102.432 279.188 112.84 279.188 107.055C279.188 102.295 273.376 98.6288 268.986 98.6288" stroke="#A6FFB0" stroke-width="19" stroke-linecap="round"/>
<path d="M188.726 116.313C188.726 122.802 190.508 129.465 193.109 135.396C194.692 139.004 197.055 144.35 200.969 146.089C205.11 147.93 209.793 138.731 211.474 136.378C213.413 133.664 214.348 130.481 215.781 127.498C217.021 124.919 216.475 126.009 216.991 128.292C218.963 137.026 224.648 156.929 237.66 154.327C244.449 152.969 248.698 142.275 251.301 137.02C253.072 133.445 256.944 127.397 253.342 123.795" stroke="#A6FFB0" stroke-width="19" stroke-linecap="round"/>
<rect x="57.295" width="209.559" height="192.414" fill="#11111B"/>
<path d="M69.678 182.152C69.678 174.712 70.9791 167.101 71.7185 159.707C73.2615 144.277 74.5853 128.93 77.9912 113.758C81.6413 97.4984 83.0636 80.8975 85.8509 64.4836C88.0155 51.7366 89.2706 38.1518 89.4029 25.185C89.4237 23.1435 88.0129 14.6757 89.554 12.942C89.7751 12.6933 90.4269 13.4513 90.7632 13.471C91.432 13.5104 92.1711 13.341 92.8037 13.6222C99.0353 16.3918 103.208 21.8867 108.599 26.2431C117.705 33.6013 128.997 37.3743 137.544 45.2877C139.235 46.854 142.657 49.9604 144.496 50.8802" stroke="#5888FF" stroke-width="19" stroke-linecap="round"/>
<path d="M145.177 50.8802C148.685 50.8802 152.116 50.1831 155.606 49.86C167.618 48.7477 179.944 49.5199 191.995 49.5199C192.719 49.5199 214.681 50.946 215.196 49.142C217.004 42.8126 225.063 37.0337 229.517 32.5157C234.051 27.9177 238.318 23.0968 243.121 18.7612C245.518 16.5968 248.193 12.4604 251.283 11.4305" stroke="#5888FF" stroke-width="19" stroke-linecap="round"/>
<path d="M251.283 11.4305C255.422 21.1434 256.473 31.6363 257.404 42.1136C259.429 64.8964 260.804 88.4962 259.029 111.377C257.864 126.393 256.044 141.234 256.044 156.306C256.044 161.067 256.044 165.828 256.044 170.59C256.044 172.821 255.599 175.385 257.404 177.089C258.686 178.299 258.764 177.947 258.764 180.112" stroke="#5888FF" stroke-width="19" stroke-linecap="round"/>
<path d="M132.934 88.2894C131.832 88.2894 120.82 91.5178 120.993 91.6902C125.491 96.1889 130.64 92.9223 133.576 89.0074C137.897 83.2458 117.228 86.8672 123.411 93.0506C124.896 94.5354 129.483 94.2309 130.364 92.3704C131.742 89.4621 128.501 86.3168 126.812 89.2719C126.518 89.7859 125.488 90.8438 126.283 91.5391C126.709 91.9119 126.821 87.075 126.736 86.589C126.447 84.9227 123.382 81.4877 121.522 81.4877C120.088 81.4877 120.112 88.5291 120.01 89.6497" stroke="#5888FF" stroke-width="19" stroke-linecap="round"/>
<path d="M210.473 87.6092C207.481 83.3854 204.351 89.6199 204.351 92.8994C204.351 99.4193 214.151 100.907 219.239 99.7767C224.615 98.582 218.685 91.926 215.385 91.6902C213.177 91.5326 209.792 89.6414 209.792 93.4284C209.792 96.3148 213.113 98.8735 212.475 94.4109C211.849 90.0278 200.487 90.6158 208.205 98.6431C209.101 99.5749 222.035 109.982 222.035 104.198C222.035 99.4374 216.223 95.7712 211.833 95.7712" stroke="#5888FF" stroke-width="19" stroke-linecap="round"/>
<path d="M131.573 113.456C131.573 119.945 133.356 126.608 135.956 132.538C137.539 136.147 139.903 141.492 143.816 143.232C147.957 145.072 152.64 135.874 154.321 133.521C156.26 130.806 157.195 127.623 158.629 124.641C159.869 122.062 159.323 123.152 159.838 125.434C161.81 134.168 167.496 154.072 180.507 151.469C187.297 150.112 191.546 139.418 194.149 134.163C195.92 130.587 199.792 124.54 196.189 120.937" stroke="#5888FF" stroke-width="19" stroke-linecap="round"/>
<rect x="3" width="202.47" height="198.577" fill="#11111B"/>
<path d="M9.89459 184.615C9.89459 177.174 11.1957 169.563 11.9351 162.169C13.4781 146.74 14.8018 131.392 18.2077 116.22C21.8578 99.9606 23.2802 83.3597 26.0675 66.9457C28.232 54.1988 29.4871 40.614 29.6194 27.6472C29.6403 25.6057 28.2295 17.1379 29.7706 15.4042C29.9916 15.1555 30.6435 15.9134 30.9798 15.9332C31.6486 15.9726 32.3876 15.8032 33.0203 16.0844C39.2519 18.854 43.4242 24.3489 48.8153 28.7052C57.9211 36.0635 69.2136 39.8365 77.7601 47.7499C79.4517 49.3162 82.8733 52.4226 84.713 53.3424" stroke="white" stroke-width="19" stroke-linecap="round"/>
<path d="M85.3932 53.3424C88.9019 53.3424 92.3327 52.6453 95.8224 52.3222C107.835 51.2099 120.16 51.9821 132.211 51.9821C132.936 51.9821 154.897 53.4082 155.413 51.6042C157.221 45.2748 165.28 39.4959 169.734 34.9779C174.267 30.3799 178.535 25.559 183.337 21.2234C185.735 19.059 188.41 14.9226 191.499 13.8927" stroke="white" stroke-width="19" stroke-linecap="round"/>
<path d="M191.499 13.8927C195.639 23.6056 196.689 34.0984 197.621 44.5758C199.646 67.3586 201.021 90.9584 199.246 113.839C198.081 128.855 196.26 143.696 196.26 158.768C196.26 163.529 196.26 168.291 196.26 173.052C196.26 175.283 195.816 177.847 197.621 179.551C198.902 180.762 198.981 180.409 198.981 182.574" stroke="white" stroke-width="19" stroke-linecap="round"/>
<path d="M73.1501 90.7516C72.0489 90.7516 61.0369 93.9799 61.2094 94.1524C65.708 98.6511 70.8563 95.3845 73.7925 91.4695C78.1137 85.708 57.4444 89.3294 63.6278 95.5128C65.1125 96.9975 69.6993 96.6931 70.5806 94.8326C71.9582 91.9243 68.7172 88.7789 67.0286 91.7341C66.7349 92.248 65.705 93.306 66.4996 94.0013C66.9257 94.3741 67.0376 89.5372 66.953 89.0512C66.6632 87.3848 63.5985 83.9499 61.7384 83.9499C60.3042 83.9499 60.3288 90.9913 60.2269 92.1119" stroke="white" stroke-width="19" stroke-linecap="round"/>
<path d="M150.689 90.0714C147.697 85.8476 144.568 92.0821 144.568 95.3616C144.568 101.881 154.368 103.369 159.456 102.239C164.832 101.044 158.902 94.3882 155.602 94.1524C153.394 93.9947 150.009 92.1036 150.009 95.8906C150.009 98.777 153.329 101.336 152.692 96.8731C152.066 92.49 140.704 93.078 148.422 101.105C149.318 102.037 162.252 112.445 162.252 106.66C162.252 101.9 156.44 98.2334 152.05 98.2334" stroke="white" stroke-width="19" stroke-linecap="round"/>
<path d="M71.7898 115.918C71.7898 122.407 73.5721 129.07 76.1731 135C77.7557 138.609 80.1193 143.955 84.0328 145.694C88.1738 147.534 92.8568 138.336 94.5376 135.983C96.4764 133.268 97.4115 130.085 98.8453 127.103C100.085 124.524 99.5391 125.614 100.055 127.896C102.027 136.63 107.712 156.534 120.724 153.932C127.513 152.574 131.762 141.88 134.365 136.625C136.136 133.049 140.008 127.002 136.406 123.4" stroke="white" stroke-width="19" stroke-linecap="round"/>
</svg>
